<svg width="14" height="14" viewBox="0 0 14 14" fill="none" xmlns="http://www.w3.org/2000/svg">
<path fill-rule="evenodd" clip-rule="evenodd" d="M7 0.333252C3.3181 0.333252 0.333336 3.31802 0.333336 6.99992C0.333336 10.6818 3.3181 13.6666 7 13.6666C10.6819 13.6666 13.6667 10.6818 13.6667 6.99992C13.6667 5.23181 12.9643 3.53612 11.714 2.28587C10.4638 1.03563 8.76811 0.333252 7 0.333252ZM6.33334 4.33325C6.33334 3.96506 6.63181 3.66659 7 3.66659C7.36819 3.66659 7.66667 3.96506 7.66667 4.33325V6.99992C7.66667 7.36811 7.36819 7.66658 7 7.66658C6.63181 7.66658 6.33334 7.36811 6.33334 6.99992V4.33325ZM7.55334 9.29325C7.57857 9.33042 7.59874 9.37077 7.61334 9.41325C7.6372 9.45026 7.65519 9.49074 7.66667 9.53325C7.66994 9.57764 7.66994 9.6222 7.66667 9.66659C7.66562 9.7537 7.6475 9.83977 7.61334 9.91992C7.55272 10.0874 7.42082 10.2193 7.25334 10.2799C7.09198 10.3512 6.90803 10.3512 6.74667 10.2799C6.57918 10.2193 6.44729 10.0874 6.38667 9.91992C6.35251 9.83977 6.33439 9.7537 6.33334 9.66659C6.33231 9.48938 6.40188 9.31907 6.52667 9.19325C6.59147 9.13437 6.66588 9.08701 6.74667 9.05325C6.99493 8.94885 7.28163 9.00409 7.47334 9.19325L7.55334 9.29325ZM1.66667 6.99992C1.66667 9.94544 4.05448 12.3333 7 12.3333C8.41449 12.3333 9.77104 11.7713 10.7712 10.7712C11.7714 9.77096 12.3333 8.41441 12.3333 6.99992C12.3333 4.0544 9.94552 1.66659 7 1.66659C4.05448 1.66659 1.66667 4.0544 1.66667 6.99992Z" fill="#A12027"/>
</svg>
