<svg width="17" height="18" viewBox="0 0 17 18" fill="none" xmlns="http://www.w3.org/2000/svg">
<path d="M3.20312 12.1406C5.04688 11.3906 6.8125 11.0156 8.5 11.0156C10.1875 11.0156 11.9375 11.3906 13.75 12.1406C15.5938 12.8594 16.5156 13.8125 16.5156 15V17.0156H0.484375V15C0.484375 13.8125 1.39062 12.8594 3.20312 12.1406ZM11.3125 7.82812C10.5312 8.60938 9.59375 9 8.5 9C7.40625 9 6.46875 8.60938 5.6875 7.82812C4.90625 7.04688 4.51562 6.10938 4.51562 5.01562C4.51562 3.92188 4.90625 2.98438 5.6875 2.20312C6.46875 1.39063 7.40625 0.984375 8.5 0.984375C9.59375 0.984375 10.5312 1.39063 11.3125 2.20312C12.0938 2.98438 12.4844 3.92188 12.4844 5.01562C12.4844 6.10938 12.0938 7.04688 11.3125 7.82812Z" fill="white"/>
</svg>
